---
title: 孙悦.1998-幸福快车【上海音像】【WAV+CUE】
date: 2022-12-14 07:35:24
categories: WAV车载音乐、镜像
tags: 华语中文
---
# 孙悦.1998-幸福快车【上海音像】【WAV+CUE】

PERFORMER "孙悦"
TITLE "幸福快车"
FILE "孙悦.-.[幸福快车](1998)[WAV].wav" WAVE
TRACK 01 AUDIO
TITLE "幸福快车"
INDEX 01 00:00:00
TRACK 02 AUDIO
TITLE "爱人辛苦"
INDEX 00 03:59:10
INDEX 01 04:00:52
TRACK 03 AUDIO
TITLE "大家恭喜"
INDEX 00 08:10:17
INDEX 01 08:11:60
TRACK 04 AUDIO
TITLE "甜甜的春风"
INDEX 00 11:11:52
INDEX 01 11:13:20
TRACK 05 AUDIO
TITLE "今年要比去年好"
INDEX 00 15:09:25
INDEX 01 15:10:67
TRACK 06 AUDIO
TITLE "新年到"
INDEX 00 19:48:42
INDEX 01 19:50:10
TRACK 07 AUDIO
TITLE "新年快乐"
INDEX 00 22:29:40
INDEX 01 22:31:07
TRACK 08 AUDIO
TITLE "我暖你心"
INDEX 00 25:45:32
INDEX 01 25:47:00
TRACK 09 AUDIO
TITLE "心情不错"
INDEX 00 30:11:40
INDEX 01 30:13:07
TRACK 10 AUDIO
TITLE "伙伴"
INDEX 00 34:46:27
INDEX 01 34:47:70
TRACK 11 AUDIO
TITLE "飘飘乐逍遥"
INDEX 00 38:49:10
INDEX 01 38:50:52
TRACK 12 AUDIO
TITLE "欢乐中国年"
INDEX 00 43:14:45
INDEX 01 43:16:12
孙悦.1998 - 幸福快车【上海音像】【WAV+CUE】.rar:
https://url27.ctfile.com/f/9388027-743533676-f52e64?p=559675
(访问密码: 559675)
孙悦.1996 - 伙伴【正大国际】【ＷAV+CUE】.rar: https://url27.ctfile.com/f/9388027-728110658-e7d436?p=559675
(访问密码: 559675)
孙悦.1998 - 好人好梦（情歌对唱合辑）【嘉鹏】【WAV+CUE】.rar: https://url27.ctfile.com/f/9388027-743533766-9fcda7?p=559675
(访问密码: 559675)
孙悦.1999 - 快乐指南【广州音像】【WAV+CUE】.rar: https://url27.ctfile.com/f/9388027-743533695-94bf41?p=559675
(访问密码: 559675)
孙悦.2002 - 百合花【天中文化】【WAV+CUE】.rar: https://url27.ctfile.com/f/9388027-728110636-48efd1?p=559675
(访问密码: 559675)
孙悦.2002 - 独一无二（TP版）【中唱】【WAV+CUE】.rar: https://url27.ctfile.com/f/9388027-728111191-24fb10?p=559675
(访问密码: 559675)
孙悦.2003 - 她和她们【天中文化】【WAV+CUE】.rar: https://url27.ctfile.com/f/9388027-495195494-3203d8?p=559675
(访问密码: 559675)
孙悦.2004 - 悦得精选【上海音像】【WAV+CUE】.rar: https://url27.ctfile.com/f/9388027-728111186-b477f2?p=559675
(访问密码: 559675)
孙悦.2006 - 幸福沙漏【天中文化】【WAV+CUE】.rar: https://url27.ctfile.com/f/9388027-728110622-c30edf?p=559675
(访问密码: 559675)
原文：[链接](https://blog.sina.com.cn/s/blog_1647c7e76010310ln.html)